HIERARCHY
ROOT Hips
{
  OFFSET 5.80788e-005 67.184 3.4734
  CHANNELS 6 Xposition Yposition Zposition Zrotation Xrotation Yrotation
  JOINT Chest
  {
    OFFSET 0 8.7983 -4.7612
    CHANNELS 3 Zrotation Xrotation Yrotation
    JOINT Chest2
    {
      OFFSET 0 8.0291 0.4195
      CHANNELS 3 Zrotation Xrotation Yrotation
      JOINT Chest3
      {
        OFFSET 0 9.9351 -2.2114
        CHANNELS 3 Zrotation Xrotation Yrotation
        JOINT Neck
        {
          OFFSET 0 22.3885 -0.4656
          CHANNELS 3 Zrotation Xrotation Yrotation
          JOINT Head
          {
            OFFSET -0.0001 12.643 3.4389
            CHANNELS 3 Zrotation Xrotation Yrotation
            End Site
            {
              OFFSET 0.0001 17.6655 0.5274
            }
          }
        }
        JOINT LeftCollar
        {
          OFFSET 2.2603 21.606 7.4023
          CHANNELS 3 Zrotation Xrotation Yrotation
          JOINT LeftShoulder
          {
            OFFSET 13.5163 -1.1332 -5.0146
            CHANNELS 3 Zrotation Xrotation Yrotation
            JOINT LeftElbow
            {
              OFFSET -0.0995 -28.05 -0.2431
              CHANNELS 3 Zrotation Xrotation Yrotation
              JOINT LeftWrist
              {
                OFFSET 0.0679 -23.3996 -0.1402
                CHANNELS 3 Zrotation Xrotation Yrotation
                JOINT LeftFinger1
                {
                  OFFSET 0.7932 -9.069 2.5189
                  CHANNELS 3 Zrotation Xrotation Yrotation
                  JOINT LeftFinger11
                  {
                    OFFSET -0.8272 -3.3923 0.5977
                    CHANNELS 3 Zrotation Xrotation Yrotation
                    JOINT LeftFinger12
                    {
                      OFFSET -0.5649 -2.3158 0.4082
                      CHANNELS 3 Zrotation Xrotation Yrotation
                      End Site
                      {
                        OFFSET -0.4919 -1.6479 0.2673
                      }
                    }
                  }
                }
                JOINT LeftFinger2
                {
                  OFFSET 0.9159 -9.2044 0.2193
                  CHANNELS 3 Zrotation Xrotation Yrotation
                  JOINT LeftFinger21
                  {
                    OFFSET 0.0117 -4.1944 -0.0248
                    CHANNELS 3 Zrotation Xrotation Yrotation
                    JOINT LeftFinger22
                    {
                      OFFSET 0.0071 -2.3249 -0.0142
                      CHANNELS 3 Zrotation Xrotation Yrotation
                      End Site
                      {
                        OFFSET -0.1475 -2.0882 0.0028
                      }
                    }
                  }
                }
                JOINT LeftFinger3
                {
                  OFFSET 0.6113 -8.7231 -2.0637
                  CHANNELS 3 Zrotation Xrotation Yrotation
                  JOINT LeftFinger31
                  {
                    OFFSET -0.1927 -3.8059 -0.2383
                    CHANNELS 3 Zrotation Xrotation Yrotation
                    JOINT LeftFinger32
                    {
                      OFFSET -0.1091 -2.1688 -0.1362
                      CHANNELS 3 Zrotation Xrotation Yrotation
                      End Site
                      {
                        OFFSET -0.2358 -1.9176 -0.0906
                      }
                    }
                  }
                }
                JOINT LeftFinger4
                {
                  OFFSET -0.6151 -8.0947 -3.5641
                  CHANNELS 3 Zrotation Xrotation Yrotation
                  JOINT LeftFinger41
                  {
                    OFFSET -0.4882 -2.341 -0.6462
                    CHANNELS 3 Zrotation Xrotation Yrotation
                    JOINT LeftFinger42
                    {
                      OFFSET -0.3575 -1.7167 -0.4742
                      CHANNELS 3 Zrotation Xrotation Yrotation
                      End Site
                      {
                        OFFSET -0.4187 -1.5237 -0.3496
                      }
                    }
                  }
                }
                JOINT LeftFinger0
                {
                  OFFSET -1.42 -1.8761 1.4223
                  CHANNELS 3 Zrotation Xrotation Yrotation
                  JOINT LeftFinger01
                  {
                    OFFSET -1.1471 -3.4929 2.6334
                    CHANNELS 3 Zrotation Xrotation Yrotation
                    JOINT LeftFinger02
                    {
                      OFFSET -0.823 -2.3 1.6571
                      CHANNELS 3 Zrotation Xrotation Yrotation
                      End Site
                      {
                        OFFSET -0.5822 -1.6914 1.1582
                      }
                    }
                  }
                }
              }
            }
          }
        }
        JOINT RightCollar
        {
          OFFSET -2.2603 21.606 7.4023
          CHANNELS 3 Zrotation Xrotation Yrotation
          JOINT RightShoulder
          {
            OFFSET -13.5187 -1.1334 -5.0155
            CHANNELS 3 Zrotation Xrotation Yrotation
            JOINT RightElbow
            {
              OFFSET 0.0994 -28.0499 -0.2431
              CHANNELS 3 Zrotation Xrotation Yrotation
              JOINT RightWrist
              {
                OFFSET -0.0679 -23.3996 -0.1402
                CHANNELS 3 Zrotation Xrotation Yrotation
                JOINT RightFinger1
                {
                  OFFSET -0.7932 -9.0691 2.5189
                  CHANNELS 3 Zrotation Xrotation Yrotation
                  JOINT RightFinger11
                  {
                    OFFSET 0.8272 -3.3923 0.5977
                    CHANNELS 3 Zrotation Xrotation Yrotation
                    JOINT RightFinger12
                    {
                      OFFSET 0.565 -2.3158 0.4082
                      CHANNELS 3 Zrotation Xrotation Yrotation
                      End Site
                      {
                        OFFSET 0.4919 -1.6479 0.2673
                      }
                    }
                  }
                }
                JOINT RightFinger2
                {
                  OFFSET -0.916 -9.2044 0.2193
                  CHANNELS 3 Zrotation Xrotation Yrotation
                  JOINT RightFinger21
                  {
                    OFFSET -0.0117 -4.1944 -0.0248
                    CHANNELS 3 Zrotation Xrotation Yrotation
                    JOINT RightFinger22
                    {
                      OFFSET -0.0071 -2.3249 -0.0142
                      CHANNELS 3 Zrotation Xrotation Yrotation
                      End Site
                      {
                        OFFSET 0.1475 -2.0882 0.0028
                      }
                    }
                  }
                }
                JOINT RightFinger3
                {
                  OFFSET -0.6113 -8.7231 -2.0637
                  CHANNELS 3 Zrotation Xrotation Yrotation
                  JOINT RightFinger31
                  {
                    OFFSET 0.1927 -3.8059 -0.2383
                    CHANNELS 3 Zrotation Xrotation Yrotation
                    JOINT RightFinger32
                    {
                      OFFSET 0.1091 -2.1688 -0.1362
                      CHANNELS 3 Zrotation Xrotation Yrotation
                      End Site
                      {
                        OFFSET 0.2358 -1.9176 -0.0906
                      }
                    }
                  }
                }
                JOINT RightFinger4
                {
                  OFFSET 0.6151 -8.0947 -3.564
                  CHANNELS 3 Zrotation Xrotation Yrotation
                  JOINT RightFinger41
                  {
                    OFFSET 0.4882 -2.341 -0.6462
                    CHANNELS 3 Zrotation Xrotation Yrotation
                    JOINT RightFinger42
                    {
                      OFFSET 0.3574 -1.7166 -0.4742
                      CHANNELS 3 Zrotation Xrotation Yrotation
                      End Site
                      {
                        OFFSET 0.4187 -1.5237 -0.3496
                      }
                    }
                  }
                }
                JOINT RightFinger0
                {
                  OFFSET 1.4199 -1.8761 1.4221
                  CHANNELS 3 Zrotation Xrotation Yrotation
                  JOINT RightFinger01
                  {
                    OFFSET 1.1472 -3.4929 2.6336
                    CHANNELS 3 Zrotation Xrotation Yrotation
                    JOINT RightFinger02
                    {
                      OFFSET 0.8229 -2.3 1.6571
                      CHANNELS 3 Zrotation Xrotation Yrotation
                      End Site
                      {
                        OFFSET 0.5822 -1.6914 1.1582
                      }
                    }
                  }
                }
              }
            }
          }
        }
      }
    }
  }
  JOINT RightHip
  {
    OFFSET -9.412 3.9771 -0.7758
    CHANNELS 3 Zrotation Xrotation Yrotation
    JOINT RightKnee
    {
      OFFSET -0.7531 -40.938 0
      CHANNELS 3 Zrotation Xrotation Yrotation
      JOINT RightAnkle
      {
        OFFSET 0 -40.1986 0
        CHANNELS 3 Zrotation Xrotation Yrotation
        JOINT RightToe
        {
          OFFSET 0 -4.4182 9.239
          CHANNELS 3 Zrotation Xrotation Yrotation
          End Site
          {
            OFFSET 0 0 6.1981
          }
        }
      }
    }
  }
  JOINT LeftHip
  {
    OFFSET 9.4119 3.9773 -0.7758
    CHANNELS 3 Zrotation Xrotation Yrotation
    JOINT LeftKnee
    {
      OFFSET 0.7532 -40.9383 0
      CHANNELS 3 Zrotation Xrotation Yrotation
      JOINT LeftAnkle
      {
        OFFSET 0 -40.1986 0
        CHANNELS 3 Zrotation Xrotation Yrotation
        JOINT LeftToe
        {
          OFFSET 0 -4.4182 9.239
          CHANNELS 3 Zrotation Xrotation Yrotation
          End Site
          {
            OFFSET 0 0 6.1981
          }
        }
      }
    }
  }
}
MOTION
Frames:	5
Frame Time:	0.0333333
5.80788e-005 67.184 3.4734 0 0 -0 0 0 -0 0 0 -0 0 0 -0 0 0 -0 0 0 -0 0 0 -12.5014 88.1196 14.2451 10.6914 -0.00160068 -0.00239207 0.000740045 -8.4365e-005 7.00714e-005 -9.52055e-007 9.93923e-017 -1.98785e-016 -1.59028e-015 9.93923e-017 -5.96354e-016 -1.59028e-015 -9.93923e-017 -5.96354e-016 -1.59028e-015 9.93923e-017 -1.98785e-016 -1.59028e-015 -0.0128176 0.00232552 8.52707e-005 9.93923e-017 5.96354e-016 -0 9.93923e-017 -1.98785e-016 -1.59028e-015 -0.0160551 0.00299681 0.000857156 -2.48481e-016 0 3.18055e-015 9.93923e-017 -1.98785e-016 -1.59028e-015 -0.0125865 0.0031206 0.00282719 0 1.98785e-016 -0 9.93923e-017 -1.98785e-016 -1.59028e-015 9.93923e-017 -5.96354e-016 -1.59028e-015 -9.93923e-017 -5.96354e-016 -1.59028e-015 -0.865644 0.16582 7.03859 -88.0329 10.2057 -10.5567 0.0015593 -0.00248883 -0.000788628 7.87605e-005 4.10553e-005 1.24965e-005 -3.97569e-016 -7.95139e-016 3.18055e-015 -1.98785e-016 -3.97569e-016 3.18055e-015 -1.98785e-016 0 3.18055e-015 -3.97569e-016 -7.95139e-016 3.18055e-015 0.0129473 0.00231697 -8.70038e-005 9.93923e-017 -7.95139e-016 1.59028e-015 -3.97569e-016 -7.95139e-016 3.18055e-015 0.0163314 0.00303369 -0.000872333 3.97569e-016 7.95139e-016 -3.18055e-015 -3.97569e-016 -7.95139e-016 3.18055e-015 0.0145763 0.00367772 -0.00326275 9.93923e-017 -3.97569e-016 -0 -3.97569e-016 -7.95139e-016 3.18055e-015 -1.98785e-016 -3.97569e-016 3.18055e-015 -1.98785e-016 0 3.18055e-015 3.42485 1.36937 -0.0640303 0.000136572 0.69354 0.00145564 -3.42573 -2.06297 -0.0607933 -3.19502e-024 0 -1.48106e-024 -3.42498 1.36123 0.0639712 -6.769e-005 0.712612 -0.0012277 3.42582 -2.07388 0.0612819 2.55305e-023 0 -2.31416e-026 
-5.24521e-005 48.585 15.5024 -160.413 79.269 -0 -0.551003 -1.12481 -0.0926363 -1.10414 -2.24867 -0.196127 -1.10415 -2.24872 -0.196127 3.87218e-005 14.2927 1.23049e-005 -6.60865e-007 9.83039 -1.6097e-006 15.0898 9.03875 11.3237 92.0174 56.1575 -20.8154 2.33789 -0.246716 -27.0819 48.665 -7.64218 7.67734 0 3.18055e-015 -0 9.54166e-015 -3.18055e-015 -0 0 0 -3.18055e-015 0 3.18055e-015 -0 -0.0128569 0.00233619 6.82808e-005 1.27222e-014 -3.18055e-015 6.36111e-015 0 3.18055e-015 -0 -0.0160844 0.00300245 0.000845909 -3.18055e-015 0 -6.36111e-015 0 3.18055e-015 -0 -0.0126414 0.00313956 0.00282864 -3.18056e-015 -4.03979e-006 -6.36111e-015 0 3.18055e-015 -0 9.54166e-015 -3.18055e-015 -0 0 0 -3.18055e-015 -16.2245 9.81436 -19.7252 -92.5723 48.3148 21.6915 -2.38214 -0.247856 27.079 -48.3727 -6.73791 -8.0943 -3.18055e-015 -3.18055e-015 -9.54166e-015 -4.27943e-006 9.61222e-006 -1.37377e-006 8.43986e-006 -3.47433e-006 7.76749e-006 -3.18055e-015 -3.18055e-015 -9.54166e-015 0.0129411 0.00231025 -8.09626e-005 -7.81787e-007 2.57509e-006 2.19396e-006 -3.18055e-015 -3.18055e-015 -9.54166e-015 0.0162982 0.00302778 -0.000870585 -3.53113e-031 -3.18055e-015 -6.36111e-015 -3.18055e-015 -3.18055e-015 -9.54166e-015 0.0146117 0.00369293 -0.00326592 3.18055e-015 6.36111e-015 6.36111e-015 -3.18055e-015 -3.18055e-015 -9.54166e-015 -4.27943e-006 9.61222e-006 -1.37377e-006 8.43986e-006 -3.47433e-006 7.76749e-006 -38.1086 19.0342 -29.8515 -63.2118 54.4659 64.1625 8.83965 11.0518 18.4001 -4.24317e-007 -6.10594e-007 3.66688e-008 40.315 19.4252 28.2189 57.7068 53.1134 -59.4357 -9.50274 14.4769 -19.9977 4.91574e-006 1.43277e-006 2.62742e-006 
1.86127 42.0541 18.9318 -6.66277 87.2885 180 -0.64763 -1.51707 -0.114769 -1.29897 -3.0328 -0.246803 -1.29897 -3.03279 -0.2468 -4.64796e-006 16.1599 -1.32268e-006 1.94387e-006 11.0696 2.24174e-006 16.7608 10.2252 14.3258 93.2472 63.8279 -26.5912 2.62443 -0.276523 -31.5061 57.235 -8.34468 9.30544 7.85504e-006 -4.06936e-006 6.57688e-006 -5.47568e-007 -1.07071e-006 -4.64895e-006 -7.06225e-031 1.27222e-014 3.18055e-015 7.85504e-006 -4.06936e-006 6.57688e-006 -0.012839 0.00233463 8.18485e-005 1.59028e-015 9.54166e-015 -6.36111e-015 7.85504e-006 -4.06936e-006 6.57688e-006 -0.016061 0.00300326 0.00084981 -3.1659e-006 -3.89087e-007 -6.8414e-006 7.85504e-006 -4.06936e-006 6.57688e-006 -0.0126047 0.00312548 0.00282886 0 0 -6.36111e-015 7.85504e-006 -4.06936e-006 6.57688e-006 -5.47568e-007 -1.07071e-006 -4.64895e-006 -7.06225e-031 1.27222e-014 3.18055e-015 -17.8421 10.9629 -23.0531 -93.8741 55.5223 27.6195 -2.65827 -0.275027 31.5105 -56.9342 -7.27004 -9.77472 -1.59028e-015 3.18055e-015 3.18055e-015 -9.54166e-015 -6.36111e-015 6.36111e-015 -1.59028e-015 -3.18055e-015 1.59028e-015 -1.59028e-015 3.18055e-015 3.18055e-015 0.0129637 0.00230959 -8.98092e-005 4.77083e-015 0 -3.18055e-015 -1.59028e-015 3.18055e-015 3.18055e-015 0.016339 0.00304429 -0.000877872 1.76556e-031 -6.36111e-015 1.59028e-015 -1.59028e-015 3.18055e-015 3.18055e-015 0.014587 0.00369001 -0.00327604 -3.18055e-015 6.36111e-015 -0 -1.59028e-015 3.18055e-015 3.18055e-015 -9.54166e-015 -6.36111e-015 6.36111e-015 -1.59028e-015 -3.18055e-015 1.59028e-015 -43.3112 21.3947 -36.7134 -82.9055 53.013 80.9301 8.6741 13.4432 22.1065 -4.55092e-006 -4.79832e-007 -7.92758e-007 45.7232 20.5577 35.0932 79.7686 52.9256 -78.6334 -9.0176 16.4108 -23.6556 3.18055e-015 -3.18055e-015 3.18055e-015 
1.53856 43.7702 18.5543 -179.989 89.9989 -0.00730863 -0.624105 -1.73019 -0.115407 -1.25255 -3.459 -0.249843 -1.25255 -3.45899 -0.249843 2.80567e-005 14.978 5.23451e-006 -2.24225e-008 10.2007 -6.70343e-007 16.2148 9.99019 12.0496 93.2001 63.2048 -25.3363 2.37427 -0.236926 -30.3814 55.7876 -8.11686 8.6804 -9.47475e-007 5.17404e-006 1.42088e-006 8.14768e-006 7.53749e-007 1.41164e-006 -3.18055e-015 -3.18055e-015 -0 -9.47475e-007 5.17404e-006 1.42088e-006 -0.0128147 0.00232571 8.26684e-005 6.36111e-015 -6.36111e-015 -3.18055e-015 -9.47475e-007 5.17404e-006 1.42088e-006 -0.0160333 0.00299442 0.000848932 -4.77083e-015 -3.18055e-015 -0 -9.47475e-007 5.17404e-006 1.42088e-006 -0.0125421 0.00311725 0.00281988 4.77083e-015 2.25526e-007 3.18055e-015 -9.47475e-007 5.17404e-006 1.42088e-006 8.14768e-006 7.53749e-007 1.41164e-006 -3.18055e-015 -3.18055e-015 -0 -17.3493 10.7035 -20.4161 -93.8252 55.308 26.352 -2.42231 -0.238563 30.388 -55.5752 -7.14812 -9.21522 6.6461e-006 -5.22565e-007 3.56257e-006 1.88433e-006 -2.4612e-006 7.32492e-006 -3.18055e-015 -9.54166e-015 -1.11319e-014 6.6461e-006 -5.22565e-007 3.56257e-006 0.0129456 0.00233018 -9.68617e-005 3.18055e-015 3.81667e-014 -4.77083e-015 6.6461e-006 -5.22565e-007 3.56257e-006 0.0162719 0.003024 -0.000875366 8.82781e-031 -1.59028e-014 3.18055e-015 6.6461e-006 -5.22565e-007 3.56257e-006 0.0144774 0.0036527 -0.00324011 -1.19467e-006 4.3172e-006 1.00367e-006 6.6461e-006 -5.22565e-007 3.56257e-006 1.88433e-006 -2.4612e-006 7.32492e-006 -3.18055e-015 -9.54166e-015 -1.11319e-014 -42.6022 20.5119 -36.6751 -77.1788 53.7911 76.1811 7.04302 13.3362 22.2149 -3.18055e-015 -1.59028e-015 -6.36111e-015 44.9313 20.0344 35.2693 73.5183 53.4886 -73.2722 -7.22141 16.2661 -23.9352 1.5169e-006 -6.31957e-007 6.17689e-007 
1.53986 43.7525 18.9797 0.00370041 89.4459 -180 -0.625091 -1.97974 -0.120463 -1.25548 -3.95805 -0.26278 -1.25547 -3.95805 -0.26278 -7.20923e-006 14.4119 -1.49971e-006 4.26955e-008 9.75804 6.66118e-007 16.1083 10.0391 10.8417 93.4611 64.2611 -25.5562 2.23302 -0.211357 -30.3815 56.3719 -8.06372 8.51859 -6.17021e-006 1.90453e-006 -3.94556e-006 -1.0255e-006 -1.14979e-006 1.16484e-006 3.53113e-031 3.18055e-015 -6.36111e-015 -6.17021e-006 1.90453e-006 -3.94556e-006 -0.0128073 0.00232067 9.50447e-005 1.02538e-006 1.14983e-006 -1.1648e-006 -6.17021e-006 1.90453e-006 -3.94556e-006 -0.0159866 0.00297844 0.000862389 -7.27022e-006 5.90658e-006 -3.01787e-006 -6.17021e-006 1.90453e-006 -3.94556e-006 -0.0125339 0.0031009 0.00282294 0 3.18055e-015 -0 -6.17021e-006 1.90453e-006 -3.94556e-006 -1.0255e-006 -1.14979e-006 1.16484e-006 3.53113e-031 3.18055e-015 -6.36111e-015 -17.2732 10.7232 -18.9849 -94.0929 56.5974 26.5875 -2.28973 -0.214769 30.3914 -56.2276 -7.14329 -9.11499 2.38351e-030 2.8625e-014 -4.77083e-015 2.38351e-030 2.8625e-014 -4.77083e-015 3.18055e-015 3.18055e-014 -7.95139e-015 2.38351e-030 2.8625e-014 -4.77083e-015 0.0129696 0.00232171 -8.48807e-005 -3.18055e-015 -6.36111e-015 6.36111e-015 2.38351e-030 2.8625e-014 -4.77083e-015 0.016293 0.00302359 -0.000871344 0 0 -1.59028e-015 2.38351e-030 2.8625e-014 -4.77083e-015 0.014556 0.00367679 -0.00325147 -1.76556e-031 -6.36111e-015 -1.59028e-015 2.38351e-030 2.8625e-014 -4.77083e-015 2.38351e-030 2.8625e-014 -4.77083e-015 3.18055e-015 3.18055e-014 -7.95139e-015 -43.0665 20.2149 -38.0439 -76.4646 53.857 75.5884 5.67631 13.7428 23.0768 -4.0526e-006 -3.76695e-006 -1.61208e-006 45.3886 19.8129 36.8079 72.9682 53.5657 -72.8034 -5.67097 16.4896 -24.9042 -3.18055e-015 1.59028e-015 -0 
